# xmcd
#
# Track frame offsets:
#	182
#	12432
#	29357
#	42837
#	57582
#	70712
#	86682
#	109292
#	121360
#	135702
#	146192
#	160977
#	171042
#	183102
#	199242
#
# Disc length: 2825 seconds
#
# Revision: 1
# Processed by: cddbd v1.4PL0 Copyright (c) Steve Scherf et al.
# Submitted via: audiograbber 1.80
#
DISCID=d80b070f
DTITLE=Kelly Tassone - After Midnight
DYEAR=1900
DGENRE=
TTITLE0=Walking After Midnight
TTITLE1=Little One
TTITLE2=Between the Devil ...
TTITLE3=Lonely Heart Rider
TTITLE4=Blue Moon of Kentucky
TTITLE5=Country 12 Bar Blues
TTITLE6=Vountry Reggae
TTITLE7=Home on Christmas Day
TTITLE8=Home with No Name
TTITLE9=Welcome to Mildura
TTITLE10=Sad Movies
TTITLE11=7 Lonely Days
TTITLE12=Everybody's Somebody's Fool
TTITLE13=Me and Bobbie McGee
TTITLE14=Country Thru and Thru
EXTD=
EXTT0=
EXTT1=
EXTT2=
EXTT3=
EXTT4=
EXTT5=
EXTT6=
EXTT7=
EXTT8=
EXTT9=
EXTT10=
EXTT11=
EXTT12=
EXTT13=
EXTT14=
PLAYORDER=
